<svg
        version="1.1"
        id="Layer_1"
        xmlns="http://www.w3.org/2000/svg"
        xmlns:xlink="http://www.w3.org/1999/xlink"
        viewBox="0 0 64 64"
        xml:space="preserve"
        width="64px"
        height="64px"
>
  <path
          fill="#FF0000"
          d="M32,1c-1.657,0-3,1.343-3,3v6c0,1.657,1.343,3,3,3s3-1.343,3-3V4C35,2.343,33.657,1,32,1z"
  />
    <path
            fill="#FFA500"
            d="M32,0c-2.209,0-4,1.791-4,4v6c0,2.209,1.791,4,4,4s4-1.791,4-4V4C36,1.791,34.209,0,32,0z"
    />
    <path
            fill="#FFD700"
            d="M32,2c-1.105,0-2,0.895-2,2v6c0,1.105,0.895,2,2,2s2-0.895,2-2V4C34,2.895,33.105,2,32,2z"
    />
    <path
            fill="#FF8C00"
            d="M32,11c-2.209,0-4,1.791-4,4v5c0,2.209,1.791,4,4,4s4-1.791,4-4v-5C36,12.791,34.209,11,32,11z"
    />
    <path
            fill="#FF4500"
            d="M32,12c-1.105,0-2,0.895-2,2v5c0,1.105,0.895,2,2,2s2-0.895,2-2v-5C34,12.895,33.105,12,32,12z"
    />
    <polygon
            fill="#C0C0C0"
            points="31,24 33,24 33,48 38,53 38,59 26,59 26,53 31,48"
    />
    <polygon
            fill="#A9A9A9"
            points="30,48 32,48 32,52 29,55 29,58 35,58 35,55 32,52 32,48 34,48 38,53 38,59 26,59 26,53"
    />
    <path
            fill="#8B4513"
            d="M32,62c-1.657,0-3-1.343-3-3v-1h6v1C35,60.657,33.657,62,32,62z"
    />
    <path
            fill="#A0522D"
            d="M32,61c-1.105,0-2-0.895-2-2v-1h4v1C34,60.105,33.105,61,32,61z"
    />
</svg>